<?xml version="1.0" encoding="iso-8859-1"?>
<!-- Generator: Adobe Illustrator 19.0.0, SVG Export Plug-In . SVG Version: 6.00 Build 0)  -->
<svg version="1.1" id="Layer_1" xmlns="http://www.w3.org/2000/svg" xmlns:xlink="http://www.w3.org/1999/xlink" x="0px" y="0px"
	 viewBox="0 0 512 512" style="enable-background:new 0 0 512 512;" xml:space="preserve">
<path style="fill:#485566;" d="M456.348,445.217c-27.619,0-50.087-22.468-50.087-50.087v-77.913c0-9.206-7.49-16.696-16.696-16.696
	h-33.391c-9.217,0-16.696-7.473-16.696-16.696s7.479-16.696,16.696-16.696h33.391c27.619,0,50.087,22.468,50.087,50.087v77.913
	c0,9.206,7.49,16.696,16.696,16.696c9.206,0,16.696-7.49,16.696-16.696V170.897c0-6.364-3.533-12.087-9.228-14.929l-59.457-29.728
	c-8.25-4.125-11.587-14.152-7.467-22.402c4.131-8.239,14.163-11.571,22.402-7.467l59.457,29.728
	c17.076,8.538,27.685,25.707,27.685,44.799V395.13C506.435,422.749,483.967,445.217,456.348,445.217z"/>
<path style="fill:#F9B54C;" d="M411.826,66.783h-55.652c-9.217,0-16.696,7.473-16.696,16.696v133.565
	c0,9.223,7.479,16.696,16.696,16.696h55.652c9.217,0,16.696-7.473,16.696-16.696V83.478
	C428.522,74.256,421.043,66.783,411.826,66.783z"/>
<path style="fill:#576573;" d="M356.174,478.609H55.652c-9.217,0-16.696-7.473-16.696-16.696V50.087
	C38.957,22.468,61.424,0,89.043,0h233.739c27.619,0,50.087,22.468,50.087,50.087v411.826
	C372.87,471.136,365.391,478.609,356.174,478.609z"/>
<path style="fill:#485566;" d="M322.783,0h-116.87v478.609h150.261c9.217,0,16.696-7.473,16.696-16.696V50.087
	C372.87,22.468,350.402,0,322.783,0z"/>
<path style="fill:#5CE6E6;" d="M5.565,506.435v-27.826c0-18.442,14.949-33.391,33.391-33.391H372.87
	c18.442,0,33.391,14.949,33.391,33.391v27.826c0,3.073-2.492,5.565-5.565,5.565H11.13C8.057,512,5.565,509.508,5.565,506.435z"/>
<path style="fill:#51CCCC;" d="M372.87,445.217H205.913V512h194.783c3.073,0,5.565-2.492,5.565-5.565v-27.826
	C406.261,460.167,391.312,445.217,372.87,445.217z"/>
<path style="fill:#CFDBE6;" d="M289.391,166.957H122.435c-9.217,0-16.696-7.473-16.696-16.696V83.478
	c0-9.223,7.479-16.696,16.696-16.696h166.957c9.217,0,16.696,7.473,16.696,16.696v66.783
	C306.087,159.484,298.608,166.957,289.391,166.957z"/>
<path style="fill:#B8C9D9;" d="M289.391,66.783h-83.478v100.174h83.478c9.217,0,16.696-7.473,16.696-16.696V83.478
	C306.087,74.256,298.608,66.783,289.391,66.783z"/>
<rect x="139.13" y="100.174" style="fill:#5CE6E6;" width="133.565" height="33.391"/>
<rect x="205.913" y="100.174" style="fill:#51CCCC;" width="66.783" height="33.391"/>
<path style="fill:#CFDBE6;" d="M205.935,389.565c-39.891,0-72.348-32.456-72.348-72.348c0-14.358,4.206-28.245,12.163-40.152
	l46.305-69.299c6.195-9.272,21.565-9.272,27.76,0l46.305,69.294c7.955,11.913,12.162,25.799,12.162,40.158
	C278.283,357.109,245.826,389.565,205.935,389.565z"/>
<g>
	<path style="fill:#B8C9D9;" d="M219.815,207.766c-3.102-4.643-8.504-6.958-13.902-6.952v188.749c0.008,0,0.014,0.001,0.022,0.001
		c39.891,0,72.348-32.456,72.348-72.348c0-14.358-4.206-28.245-12.163-40.157L219.815,207.766z"/>
	<path style="fill:#B8C9D9;" d="M205.935,356.174c-21.478,0-38.957-17.478-38.957-38.957c0-7.733,2.261-15.201,6.532-21.603
		l32.424-48.522l32.424,48.522c4.272,6.397,6.532,13.87,6.532,21.603C244.892,338.696,227.413,356.174,205.935,356.174z"/>
</g>
<path style="fill:#97A6B4;" d="M205.935,247.092l-0.022,0.032v109.047c0.008,0,0.014,0.002,0.022,0.002
	c21.478,0,38.957-17.478,38.957-38.957c0-7.733-2.261-15.206-6.532-21.603L205.935,247.092z"/>
<g>
</g>
<g>
</g>
<g>
</g>
<g>
</g>
<g>
</g>
<g>
</g>
<g>
</g>
<g>
</g>
<g>
</g>
<g>
</g>
<g>
</g>
<g>
</g>
<g>
</g>
<g>
</g>
<g>
</g>
</svg>
