<?xml version="1.0" encoding="iso-8859-1"?>
<!-- Generator: Adobe Illustrator 19.0.0, SVG Export Plug-In . SVG Version: 6.00 Build 0)  -->
<svg version="1.1" id="Layer_1" xmlns="http://www.w3.org/2000/svg" xmlns:xlink="http://www.w3.org/1999/xlink" x="0px" y="0px"
	 viewBox="0 0 512 512" style="enable-background:new 0 0 512 512;" xml:space="preserve">
<polygon style="fill:#3D99E2;" points="53.301,468.115 129.312,512 256,438.858 382.688,512 458.699,468.115 458.699,117.028 256,0 
	53.301,117.028 "/>
<g>
	<polygon style="fill:#1D81CD;" points="382.688,408.396 382.688,410.948 458.699,367.062 458.699,364.51 	"/>
	<polygon style="fill:#1D81CD;" points="382.688,498.548 458.699,454.663 458.699,452.111 382.688,495.996 	"/>
	<polygon style="fill:#1D81CD;" points="382.688,379.08 382.688,381.631 458.699,337.745 458.699,335.193 	"/>
	<polygon style="fill:#1D81CD;" points="382.688,364.422 382.688,366.973 458.699,323.087 458.699,320.536 	"/>
	<polygon style="fill:#1D81CD;" points="382.688,393.737 382.688,396.289 458.699,352.404 458.699,349.852 	"/>
	<polygon style="fill:#1D81CD;" points="382.688,452.281 382.688,454.833 458.699,410.948 458.699,408.396 	"/>
	<polygon style="fill:#1D81CD;" points="382.688,320.342 382.688,322.894 458.699,279.008 458.699,276.456 	"/>
	<polygon style="fill:#1D81CD;" points="382.688,466.854 382.688,469.405 458.699,425.519 458.699,422.968 	"/>
	<polygon style="fill:#1D81CD;" points="382.688,481.425 382.688,483.977 458.699,440.092 458.699,437.54 	"/>
	<polygon style="fill:#1D81CD;" points="382.688,203.525 382.688,206.076 458.699,162.19 458.699,159.639 	"/>
	<polygon style="fill:#1D81CD;" points="382.688,188.896 382.688,191.448 458.699,147.562 458.699,145.01 	"/>
	<polygon style="fill:#1D81CD;" points="382.688,218.152 382.688,220.704 458.699,176.819 458.699,174.267 	"/>
	<polygon style="fill:#1D81CD;" points="382.688,174.267 382.688,176.819 458.699,132.933 458.699,130.381 	"/>
	<polygon style="fill:#1D81CD;" points="382.688,291.23 382.688,293.782 458.699,249.897 458.699,247.345 	"/>
	<polygon style="fill:#1D81CD;" points="382.688,232.781 382.688,235.333 458.699,191.448 458.699,188.896 	"/>
	<polygon style="fill:#1D81CD;" points="382.688,305.787 382.688,308.338 458.699,264.452 458.699,261.901 	"/>
	<polygon style="fill:#1D81CD;" points="382.688,276.675 382.688,279.226 458.699,235.341 458.699,232.79 	"/>
	<polygon style="fill:#1D81CD;" points="129.312,498.519 256,425.405 256,422.854 129.312,495.968 	"/>
	<polygon style="fill:#1D81CD;" points="129.312,393.709 129.312,396.26 256,323.147 256,320.595 	"/>
	<polygon style="fill:#1D81CD;" points="129.312,408.367 129.312,410.919 256,337.805 256,335.254 	"/>
	<polygon style="fill:#1D81CD;" points="129.312,364.393 129.312,366.943 256,293.83 256,291.278 	"/>
	<polygon style="fill:#1D81CD;" points="129.312,379.051 129.312,381.602 256,308.488 256,305.937 	"/>
	<polygon style="fill:#1D81CD;" points="129.312,481.397 129.312,483.947 256,410.833 256,408.283 	"/>
	<polygon style="fill:#1D81CD;" points="129.312,452.253 129.312,454.804 256,381.691 256,379.139 	"/>
	<polygon style="fill:#1D81CD;" points="129.312,320.314 129.312,322.865 256,249.75 256,247.2 	"/>
	<polygon style="fill:#1D81CD;" points="129.312,466.825 129.312,469.376 256,396.262 256,393.711 	"/>
	<polygon style="fill:#1D81CD;" points="129.312,305.757 129.312,308.308 256,235.195 256,232.643 	"/>
	<polygon style="fill:#1D81CD;" points="129.312,218.124 129.312,220.675 256,147.562 256,145.01 	"/>
	<polygon style="fill:#1D81CD;" points="129.312,203.496 129.312,206.046 256,132.933 256,130.381 	"/>
	<polygon style="fill:#1D81CD;" points="129.312,174.238 129.312,176.789 256,103.676 256,101.124 	"/>
	<polygon style="fill:#1D81CD;" points="129.312,188.867 129.312,191.417 256,118.304 256,115.753 	"/>
	<polygon style="fill:#1D81CD;" points="129.312,291.202 129.312,293.752 256,220.639 256,218.089 	"/>
	<polygon style="fill:#1D81CD;" points="129.312,232.753 129.312,235.304 256,162.19 256,159.639 	"/>
	<polygon style="fill:#1D81CD;" points="129.312,276.646 129.312,279.197 256,206.083 256,203.532 	"/>
</g>
<polygon style="fill:#E0E0E2;" points="53.301,117.028 129.312,160.915 256,87.771 382.688,160.915 458.699,117.028 256,0 "/>
<polygon style="fill:#5AAAE7;" points="382.688,160.915 382.688,512 256,438.858 256,87.771 "/>
<g>
	<polygon style="fill:#3D99E2;" points="256,308.488 382.688,381.602 382.688,379.05 256,305.937 	"/>
	<polygon style="fill:#3D99E2;" points="256,323.146 382.688,396.259 382.688,393.708 256,320.595 	"/>
	<polygon style="fill:#3D99E2;" points="256,293.83 382.688,366.943 382.688,364.392 256,291.278 	"/>
	<polygon style="fill:#3D99E2;" points="256,337.805 382.688,410.918 382.688,408.367 256,335.254 	"/>
	<polygon style="fill:#3D99E2;" points="256,410.833 382.688,483.946 382.688,481.396 256,408.283 	"/>
	<polygon style="fill:#3D99E2;" points="382.688,495.967 256,422.854 256,425.404 382.688,498.518 	"/>
	<polygon style="fill:#3D99E2;" points="256,381.69 382.688,454.804 382.688,452.252 256,379.139 	"/>
	<polygon style="fill:#3D99E2;" points="256,396.262 382.688,469.375 382.688,466.823 256,393.711 	"/>
	<polygon style="fill:#3D99E2;" points="256,235.195 382.688,308.308 382.688,305.757 256,232.643 	"/>
	<polygon style="fill:#3D99E2;" points="256,118.304 382.688,191.417 382.688,188.867 256,115.753 	"/>
	<polygon style="fill:#3D99E2;" points="256,147.561 382.688,220.675 382.688,218.123 256,145.01 	"/>
	<polygon style="fill:#3D99E2;" points="256,132.932 382.688,206.046 382.688,203.494 256,130.381 	"/>
	<polygon style="fill:#3D99E2;" points="256,249.75 382.688,322.864 382.688,320.313 256,247.2 	"/>
	<polygon style="fill:#3D99E2;" points="256,101.124 256,103.676 382.688,176.789 382.688,174.238 	"/>
	<polygon style="fill:#3D99E2;" points="256,220.638 382.688,293.752 382.688,291.201 256,218.089 	"/>
	<polygon style="fill:#3D99E2;" points="256,162.189 382.688,235.302 382.688,232.752 256,159.639 	"/>
	<polygon style="fill:#3D99E2;" points="256,206.083 382.688,279.196 382.688,276.645 256,203.532 	"/>
</g>
<polygon style="fill:#5AAAE7;" points="53.301,117.028 53.301,468.115 129.312,512 129.312,160.915 "/>
<g>
	<polygon style="fill:#3D99E2;" points="53.301,352.404 129.312,396.289 129.312,393.737 53.301,349.852 	"/>
	<polygon style="fill:#3D99E2;" points="53.301,279.008 129.312,322.894 129.312,320.342 53.301,276.456 	"/>
	<polygon style="fill:#3D99E2;" points="53.301,367.062 129.312,410.947 129.312,408.395 53.301,364.51 	"/>
	<polygon style="fill:#3D99E2;" points="53.301,337.745 129.312,381.631 129.312,379.08 53.301,335.193 	"/>
	<polygon style="fill:#3D99E2;" points="53.301,323.087 129.312,366.973 129.312,364.422 53.301,320.536 	"/>
	<polygon style="fill:#3D99E2;" points="53.301,425.519 129.312,469.404 129.312,466.853 53.301,422.968 	"/>
	<polygon style="fill:#3D99E2;" points="129.312,495.996 53.301,452.111 53.301,454.663 129.312,498.548 	"/>
	<polygon style="fill:#3D99E2;" points="53.301,440.092 129.312,483.977 129.312,481.425 53.301,437.54 	"/>
	<polygon style="fill:#3D99E2;" points="53.301,410.948 129.312,454.833 129.312,452.281 53.301,408.396 	"/>
	<polygon style="fill:#3D99E2;" points="53.301,162.19 129.312,206.075 129.312,203.524 53.301,159.639 	"/>
	<polygon style="fill:#3D99E2;" points="53.301,176.819 129.312,220.704 129.312,218.152 53.301,174.267 	"/>
	<polygon style="fill:#3D99E2;" points="53.301,264.452 129.312,308.337 129.312,305.786 53.301,261.901 	"/>
	<polygon style="fill:#3D99E2;" points="53.301,130.381 53.301,132.933 129.312,176.819 129.312,174.267 	"/>
	<polygon style="fill:#3D99E2;" points="53.301,147.562 129.312,191.447 129.312,188.895 53.301,145.01 	"/>
	<polygon style="fill:#3D99E2;" points="53.301,191.448 129.312,235.333 129.312,232.781 53.301,188.896 	"/>
	<polygon style="fill:#3D99E2;" points="53.301,249.897 129.312,293.782 129.312,291.23 53.301,247.345 	"/>
	<polygon style="fill:#3D99E2;" points="53.301,235.341 129.312,279.226 129.312,276.675 53.301,232.79 	"/>
</g>
<polygon style="fill:#898890;" points="78.638,117.028 129.312,146.286 256,73.143 382.688,146.286 433.362,117.028 256,14.629 "/>
<polygon style="fill:#ACABB1;" points="91.307,124.343 256,29.257 256,14.629 78.638,117.028 "/>
<polygon style="fill:#C6C5CB;" points="420.694,124.343 256,29.257 256,14.629 433.362,117.028 "/>
<polygon style="fill:#E0E0E2;" points="325.797,90.598 351.134,75.969 404.588,106.72 404.588,121.349 379.25,135.978 
	325.797,105.225 "/>
<polygon style="fill:#C6C5CB;" points="325.797,90.598 325.797,105.225 379.25,135.978 379.25,121.349 "/>
<polygon style="fill:#ACABB1;" points="379.25,135.978 404.588,121.349 404.588,106.72 379.25,121.349 "/>
<path style="fill:#C6C5CB;" d="M319.296,75.417v-8.015l0,0c0.004-2.651-1.737-5.302-5.221-7.314c-6.967-4.023-18.369-4.023-25.338,0
	c-3.485,2.012-5.229,4.663-5.23,7.314l0,0v8.015l0,0c-0.004,2.651,1.733,5.302,5.215,7.312c6.96,4.019,18.361,4.019,25.338,0
	C317.549,80.719,319.295,78.068,319.296,75.417L319.296,75.417z"/>
<path style="fill:#E0E0E2;" d="M288.737,60.087c-6.967,4.023-6.975,10.602-0.015,14.62c6.96,4.019,18.361,4.019,25.338,0
	c6.976-4.019,6.982-10.597,0.015-14.62S295.705,56.064,288.737,60.087z"/>
<path style="fill:#C6C5CB;" d="M273.895,50.181v-8.015l0,0c0.004-2.651-1.737-5.302-5.221-7.314c-6.967-4.023-18.369-4.023-25.337,0
	c-3.485,2.012-5.229,4.663-5.23,7.314l0,0v8.015l0,0c-0.004,2.651,1.733,5.302,5.215,7.312c6.96,4.019,18.361,4.019,25.337,0
	C272.148,55.482,273.893,52.832,273.895,50.181L273.895,50.181z"/>
<g>
	<path style="fill:#E0E0E2;" d="M243.336,34.851c-6.967,4.023-6.975,10.602-0.015,14.62c6.96,4.019,18.361,4.019,25.337,0
		c6.976-4.019,6.982-10.597,0.015-14.62C261.705,30.828,250.303,30.828,243.336,34.851z"/>
	<polygon style="fill:#E0E0E2;" points="129.312,109.714 137.758,114.591 146.204,109.714 154.65,114.591 146.204,119.467 
		154.65,124.343 179.988,109.714 171.542,104.839 163.096,109.714 154.65,104.839 163.096,99.962 154.65,95.085 	"/>
</g>
<g>
	<polygon style="fill:#1A6FB0;" points="53.301,204.801 129.287,248.718 129.287,263.3 53.301,219.428 	"/>
	<polygon style="fill:#1A6FB0;" points="53.301,292.491 129.287,336.41 129.287,350.991 53.301,307.12 	"/>
	<polygon style="fill:#1A6FB0;" points="53.301,380.183 129.287,424.101 129.287,438.683 53.301,394.812 	"/>
	<polygon style="fill:#1A6FB0;" points="129.287,248.718 256,175.543 256,190.172 129.287,263.3 	"/>
	<polygon style="fill:#1A6FB0;" points="129.287,336.549 256,263.374 256,278.003 129.287,351.13 	"/>
	<polygon style="fill:#1A6FB0;" points="129.287,424.192 256,351.018 256,365.646 129.287,438.774 	"/>
	<polygon style="fill:#1A6FB0;" points="458.699,204.801 382.713,248.718 382.713,263.3 458.699,219.428 	"/>
	<polygon style="fill:#1A6FB0;" points="458.699,292.491 382.713,336.41 382.713,350.991 458.699,307.12 	"/>
	<polygon style="fill:#1A6FB0;" points="458.699,380.183 382.713,424.101 382.713,438.683 458.699,394.812 	"/>
	<polygon style="fill:#1A6FB0;" points="382.713,248.718 256,175.543 256,190.172 382.713,263.3 	"/>
	<polygon style="fill:#1A6FB0;" points="382.713,336.549 256,263.374 256,278.003 382.713,351.13 	"/>
	<polygon style="fill:#1A6FB0;" points="382.713,424.192 256,351.018 256,365.646 382.713,438.774 	"/>
</g>
<g>
</g>
<g>
</g>
<g>
</g>
<g>
</g>
<g>
</g>
<g>
</g>
<g>
</g>
<g>
</g>
<g>
</g>
<g>
</g>
<g>
</g>
<g>
</g>
<g>
</g>
<g>
</g>
<g>
</g>
</svg>
