<?xml version="1.0" encoding="iso-8859-1"?>
<!-- Generator: Adobe Illustrator 19.0.0, SVG Export Plug-In . SVG Version: 6.00 Build 0)  -->
<svg version="1.1" id="Layer_1" xmlns="http://www.w3.org/2000/svg" xmlns:xlink="http://www.w3.org/1999/xlink" x="0px" y="0px"
	 viewBox="0 0 504.131 504.131" style="enable-background:new 0 0 504.131 504.131;" xml:space="preserve">
<circle style="fill:#99A8C1;" cx="252.065" cy="252.069" r="252.062"/>
<path style="fill:#70869B;" d="M73.834,73.823c98.43-98.43,258.032-98.43,356.462,0c98.43,98.446,98.446,258.032,0,356.478"/>
<g>
	<path style="fill:#1D2321;" d="M221.416,105.236c-7.097,0-12.832,5.742-12.832,12.816v43.126H189.94v-43.126
		c0-7.073-5.742-12.816-12.816-12.816c-7.097,0-12.816,5.742-12.816,12.816v43.126h-18.653v-43.126
		c0-7.073-5.742-12.816-12.824-12.816c-7.089,0-12.816,5.742-12.816,12.816v78.092c0,0.26,0.063,0.504,0.079,0.772v37.124
		c0,12.603,10.201,22.812,22.804,22.812h19.094c-0.008,0.339-0.031,0.662-0.031,1.016l-8.074,137.46
		c0,12.832,10.413,23.245,23.245,23.245c12.831,0,23.245-10.413,23.245-23.245l-8.074-137.46c0-0.354-0.032-0.677-0.032-1.016h19.07
		c12.595,0,22.819-10.216,22.819-22.812v-37.14c0.016-0.244,0.079-0.488,0.079-0.756v-78.092
		C234.232,110.978,228.498,105.236,221.416,105.236z"/>
	<path style="fill:#1D2321;" d="M384.114,197.593c0-42.567-26.522-92.357-59.227-92.357c-32.713,0-59.242,49.782-59.242,92.357
		c0,35.706,18.708,54.942,44.064,60.219c0,0.016,0,0.031,0,0.063l-8.074,137.46c0,12.832,10.398,23.245,23.253,23.245
		c12.832,0,23.245-10.413,23.245-23.245l-8.082-137.468c0-0.032,0-0.047,0-0.063C365.391,252.534,384.114,233.314,384.114,197.593z"
		/>
</g>
<path style="fill:#363D3B;" d="M324.888,105.236c-32.713,0-59.242,49.782-59.242,92.357c0,35.706,18.708,54.942,44.064,60.219
	c0,0.016,0,0.031,0,0.063l-2.875,48.971l38.353,38.353l-5.136-87.331c0-0.032,0-0.047,0-0.063
	c25.34-5.278,44.064-24.489,44.064-60.219C384.114,155.026,357.585,105.236,324.888,105.236z"/>
<g>
</g>
<g>
</g>
<g>
</g>
<g>
</g>
<g>
</g>
<g>
</g>
<g>
</g>
<g>
</g>
<g>
</g>
<g>
</g>
<g>
</g>
<g>
</g>
<g>
</g>
<g>
</g>
<g>
</g>
</svg>
