<svg viewBox="0 0 64 64" xmlns="http://www.w3.org/2000/svg"><path d="m33 11.8c0 .5-.5 1-1 1s-1-.5-1-1v-10.8c0-.6.5-1 1-1s1 .4 1 1z" fill="#b2c1c0"/><path d="m4 28h56v32h-56z" fill="#e5dec1"/><path d="m60.5 19.8c-.5-1-1.8-1.8-3-1.8h-51.1c-1.1 0-2.5.8-3 1.8l-3.3 6.4c-.5 1 0 1.8 1.1 1.8h61.4c1.1 0 1.6-.8 1.1-1.8z" fill="#d33b23"/><path d="m15 45c0 .5-.4 1-1 1h-6c-.6 0-1-.5-1-1v-4c0-.5.4-1 1-1h6c.6 0 1 .5 1 1zm0-10c0 .5-.4 1-1 1h-6c-.6 0-1-.5-1-1v-4c0-.5.4-1 1-1h6c.6 0 1 .5 1 1z" fill="#d6eef0"/><g fill="#dbb471"><path d="m14 36.5h-6c-.8 0-1.5-.7-1.5-1.5v-4c0-.8.7-1.5 1.5-1.5h6c.8 0 1.5.7 1.5 1.5v4c0 .8-.7 1.5-1.5 1.5m-6-6c-.3 0-.5.2-.5.5v4c0 .3.2.5.5.5h6c.3 0 .5-.2.5-.5v-4c0-.3-.2-.5-.5-.5z"/><path d="m10.5 30h1v6h-1zm3.5 17h-6c-.8 0-1.5-.7-1.5-1.5v-4c0-.8.7-1.5 1.5-1.5h6c.8 0 1.5.7 1.5 1.5v4c0 .8-.7 1.5-1.5 1.5m-6-6c-.3 0-.5.2-.5.5v4c0 .3.2.5.5.5h6c.3 0 .5-.2.5-.5v-4c0-.3-.2-.5-.5-.5z"/><path d="m10.5 40.5h1v6h-1z"/></g><path d="m15 55c0 .5-.4 1-1 1h-6c-.6 0-1-.5-1-1v-4c0-.5.4-1 1-1h6c.6 0 1 .5 1 1z" fill="#d6eef0"/><g fill="#dbb471"><path d="m14 57h-6c-.8 0-1.5-.7-1.5-1.5v-4c0-.8.7-1.5 1.5-1.5h6c.8 0 1.5.7 1.5 1.5v4c0 .8-.7 1.5-1.5 1.5m-6-6c-.3 0-.5.2-.5.5v4c0 .3.2.5.5.5h6c.3 0 .5-.2.5-.5v-4c0-.3-.2-.5-.5-.5z"/><path d="m10.5 50.5h1v6h-1z"/></g><path d="m57 45c0 .5-.5 1-1 1h-6c-.5 0-1-.5-1-1v-4c0-.5.5-1 1-1h6c.5 0 1 .5 1 1zm0-10c0 .5-.5 1-1 1h-6c-.5 0-1-.5-1-1v-4c0-.5.5-1 1-1h6c.5 0 1 .5 1 1z" fill="#d6eef0"/><g fill="#dbb471"><path d="m56 36.5h-6c-.8 0-1.5-.7-1.5-1.5v-4c0-.8.7-1.5 1.5-1.5h6c.8 0 1.5.7 1.5 1.5v4c0 .8-.7 1.5-1.5 1.5m-6-6c-.3 0-.5.2-.5.5v4c0 .3.2.5.5.5h6c.3 0 .5-.2.5-.5v-4c0-.3-.2-.5-.5-.5z"/><path d="m52.5 30h1v6h-1zm3.5 17h-6c-.8 0-1.5-.7-1.5-1.5v-4c0-.8.7-1.5 1.5-1.5h6c.8 0 1.5.7 1.5 1.5v4c0 .8-.7 1.5-1.5 1.5m-6-6c-.3 0-.5.2-.5.5v4c0 .3.2.5.5.5h6c.3 0 .5-.2.5-.5v-4c0-.3-.2-.5-.5-.5z"/><path d="m52.5 40.5h1v6h-1z"/></g><path d="m57 55c0 .5-.5 1-1 1h-6c-.5 0-1-.5-1-1v-4c0-.5.5-1 1-1h6c.5 0 1 .5 1 1z" fill="#d6eef0"/><g fill="#dbb471"><path d="m56 57h-6c-.8 0-1.5-.7-1.5-1.5v-4c0-.8.7-1.5 1.5-1.5h6c.8 0 1.5.7 1.5 1.5v4c0 .8-.7 1.5-1.5 1.5m-6-6c-.3 0-.5.2-.5.5v4c0 .3.2.5.5.5h6c.3 0 .5-.2.5-.5v-4c0-.3-.2-.5-.5-.5z"/><path d="m52.5 50.5h1v6h-1z"/></g><path d="m32.8 11.6c-.4-.3-1.1-.3-1.6 0l-19.4 15.8c-.4.3-.4.6.2.6h40c.5 0 .7-.3.2-.6z" fill="#f15744"/><path d="m48.2 27.4-15.4-12.8c-.4-.4-1.1-.4-1.5 0l-15.5 12.8c-.5.3-.4.6.2.6h2v32h28v-32h2c.5 0 .7-.3.2-.6" fill="#f9f3d9"/><path d="m24 45h16v15h-16z" fill="#e5dec1"/><path d="m26 45h12v15h-12z" fill="#42ade2"/><path d="m20.2 38c.3.1.7.2 1.1.2.5 0 .7-.2.7-.4s-.2-.4-.7-.5c-.7-.2-1.2-.6-1.2-1.1 0-.7.6-1.2 1.7-1.2.5 0 .9.1 1.1.2l-.2.7c-.2-.1-.5-.2-.9-.2s-.6.2-.6.4.2.4.8.5c.8.3 1.1.6 1.1 1.2s-.6 1.2-1.8 1.2c-.5 0-1-.1-1.2-.2zm6.7.8c-.2.1-.6.2-1.1.2-1.5 0-2.3-.8-2.3-1.9 0-1.3 1.1-2.1 2.4-2.1.5 0 .9.1 1.1.2l-.2.7c-.2-.1-.5-.1-.8-.1-.8 0-1.4.4-1.4 1.3 0 .8.5 1.3 1.4 1.3.3 0 .6-.1.8-.1zm1.6-3.7v1.5h1.6v-1.5h1v3.9h-1v-1.6h-1.6v1.6h-1v-3.9zm7.5 1.9c0 1.3-.9 2-2.1 2-1.3 0-2.1-.9-2.1-2 0-1.2.8-2 2.1-2s2.1.9 2.1 2m-3.2 0c0 .8.4 1.3 1.1 1.3s1-.6 1-1.3-.4-1.3-1.1-1.3c-.6 0-1 .6-1 1.3m7.8 0c0 1.3-.9 2-2.1 2-1.3 0-2.1-.9-2.1-2 0-1.2.8-2 2.1-2 1.4 0 2.1.9 2.1 2m-3.1 0c0 .8.4 1.3 1.1 1.3s1-.6 1-1.3-.4-1.3-1.1-1.3c-.6 0-1 .6-1 1.3m3.8-1.9h1v3.1h1.7v.7h-2.7z" fill="#89664c"/><circle cx="32" cy="26" fill="#dbb471" r="7"/><circle cx="32" cy="26" fill="#fff" r="5"/><path d="m31.5 45h1v15h-1z" fill="#e5dec1"/><path d="m32 22c-.5 0-1 .5-1 1v4c0 .5.5 1 1 1s1-.5 1-1v-4c0-.5-.5-1-1-1" fill="#b2c1c0"/><path d="m32 26h-2c-.5 0-1 .5-1 1s.5 1 1 1h2c.5 0 1-.5 1-1s-.5-1-1-1" fill="#f15744"/><path d="m33 2v7.4c4 3.2 8-6.9 12-3.7-4-5.7-8 1.9-12-3.7z" fill="#b4d7ee"/><path d="m32.9 40.3c-.5-.4-1.4-.4-1.9 0-2.1 1.5-9 5.7-9 5.7v2h20v-2s-6.9-4.2-9.1-5.7" fill="#f15744"/><path d="m63 60h-62c-.6 0-1 .5-1 1v2c0 .5.4 1 1 1h62c.5 0 1-.5 1-1v-2c0-.5-.5-1-1-1" fill="#666"/><path d="m20 62h24v2h-24z" fill="#e8e8e8"/><path d="m22 60h20v2h-20z" fill="#d0d0d0"/><path d="m29.1 53.5h1.4v.7h-1.4zm4.4 0h1.4v.7h-1.4z" fill="#666"/></svg>