<svg enable-background="new 0 0 501.551 501.551" viewBox="0 0 501.551 501.551" xmlns="http://www.w3.org/2000/svg"><path d="m189.127 109.714h129.567l113.894-109.714h-129.568z" fill="#f1543f"/><path d="m342.727 168.229h-183.903v-80.458h183.902v80.458zm-163.005-20.898h142.106v-38.661h-142.106z" fill="#f8b64c"/><path d="m318.694 109.714h-129.567l-114.939-109.714h130.612z" fill="#ff7058"/><circle cx="250.776" cy="308.245" fill="#ffd15c" r="193.306"/><path d="m250.776 454.531c-80.457 0-146.286-65.829-146.286-146.286s65.829-146.286 146.286-146.286 146.286 65.829 146.286 146.286-65.829 146.286-146.286 146.286z" fill="#f8b64c"/><path d="m250.776 176.588 30.302 91.951h97.175l-79.412 57.469 30.302 91.951-78.367-57.469-78.368 57.469 30.302-91.951-79.412-57.469h97.175z" fill="#ffd15c"/></svg>